<?xml version="1.0" encoding="UTF-8" standalone="no"?>
<!-- Created with Inkscape (http://www.inkscape.org/) -->

<svg
   width="254"
   height="254"
   viewBox="0 0 67.204165 67.204166"
   version="1.1"
   id="svg5"
   inkscape:version="1.2.2 (732a01da63, 2022-12-09)"
   sodipodi:docname="icon.svg"
   inkscape:export-filename="..\shape.png"
   inkscape:export-xdpi="96"
   inkscape:export-ydpi="96"
   xmlns:inkscape="http://www.inkscape.org/namespaces/inkscape"
   xmlns:sodipodi="http://sodipodi.sourceforge.net/DTD/sodipodi-0.dtd"
   xmlns="http://www.w3.org/2000/svg"
   xmlns:svg="http://www.w3.org/2000/svg">
  <sodipodi:namedview
     id="namedview7"
     pagecolor="#505050"
     bordercolor="#ffffff"
     borderopacity="1"
     inkscape:showpageshadow="0"
     inkscape:pageopacity="0"
     inkscape:pagecheckerboard="1"
     inkscape:deskcolor="#505050"
     inkscape:document-units="px"
     showgrid="false"
     inkscape:zoom="1.4770342"
     inkscape:cx="144.2079"
     inkscape:cy="113.06441"
     inkscape:window-width="2560"
     inkscape:window-height="1009"
     inkscape:window-x="-8"
     inkscape:window-y="-8"
     inkscape:window-maximized="1"
     inkscape:current-layer="layer1" />
  <defs
     id="defs2" />
  <g
     inkscape:label="Laag 1"
     inkscape:groupmode="layer"
     id="layer1">
    <circle
       style="fill:none;stroke:#ffffff;stroke-width:1.40049;stroke-linecap:round;stroke-opacity:1"
       id="path234"
       cx="33.602089"
       cy="33.602085"
       r="32.901836" />
    <path
       style="color:#000000;fill:#ffffff;stroke-linecap:round;-inkscape-stroke:none"
       d="m 33.601562,0.34960938 c -18.336882,0 -33.25195262,14.91507062 -33.25195262,33.25195262 0,18.336883 14.91507062,33.251954 33.25195262,33.251954 18.336883,0 33.251954,-14.915071 33.251954,-33.251954 0,-18.336882 -14.915071,-33.25195262 -33.251954,-33.25195262 z m 0,17.92648362 c 3.949691,0 7.709326,-12.4319726 11.127078,-10.9892489 3.417752,1.4427237 6.493621,3.5309259 9.075778,6.1128389 2.582158,2.581913 4.670604,5.657538 6.113511,9.075107 1.442907,3.417569 -10.988799,7.177082 -10.988799,11.126772 0,3.949691 12.431706,7.709326 10.988799,11.127078 -1.442907,3.417752 -3.531353,6.493621 -6.113511,9.075778 -2.582157,2.582158 -5.658026,4.670604 -9.075778,6.113511 -3.417752,1.442907 -7.177387,-10.988799 -11.127078,-10.988799 -3.94969,0 -7.699278,12.431706 -11.101959,10.988799 C 19.096922,58.475022 16.041147,56.386576 13.479084,53.804418 10.917021,51.222261 8.8486693,48.146392 7.4208333,44.72864 5.9929973,41.310888 18.434843,37.551253 18.434843,33.601562 c 0,-3.94969 -12.4418457,-7.709203 -11.0140097,-11.126772 1.427836,-3.417569 3.4961877,-6.493194 6.0582507,-9.075107 2.562063,-2.581913 5.617838,-4.6701152 9.020519,-6.1128389 3.402681,-1.4427237 7.152269,10.9892489 11.101959,10.9892489 z"
       id="circle920"
       sodipodi:nodetypes="ssssssssssssssssssssss" />
  </g>
</svg>
