<svg width="96" height="96" xmlns="http://www.w3.org/2000/svg" xmlns:xlink="http://www.w3.org/1999/xlink" xml:space="preserve" overflow="hidden"><g transform="translate(-152 -149)"><path d="M231.1 212.4C231.1 215.2 228.9 217.4 226.1 217.4 223.3 217.4 221.1 215.2 221.1 212.4 221.1 209.6 223.3 207.4 226.1 207.4 228.9 207.4 231.1 209.7 231.1 212.4ZM196.1 216.1 191.8 206.4 200.5 206.4 196.1 216.1ZM236.9 182.4 181.3 182.4 176.8 172.2C176.3 171.1 175.2 170.4 174 170.4L164 170.4C162.3 170.4 161 171.7 161 173.4 161 175.1 162.3 176.4 164 176.4L172 176.4 191.5 220.7C192.3 222.4 194.1 223.6 196 223.6L196.1 223.6C198 223.6 199.7 222.5 200.6 220.8L200.6 220.7 207 206.4 216.8 206.4C214.1 210.6 214.5 216.2 217.9 219.9 221.3 223.6 226.8 224.5 231.2 222.1 235.6 219.7 237.9 214.6 236.6 209.7 235.4 204.8 231 201.4 226 201.4L226 201.4 238.4 185.6C238.9 185 239 184.2 238.6 183.5 238.4 182.9 237.7 182.4 236.9 182.4Z" fill="#FFFFFF"/></g></svg>