<svg width="96" height="96" xmlns="http://www.w3.org/2000/svg" xmlns:xlink="http://www.w3.org/1999/xlink" xml:space="preserve" overflow="hidden"><g transform="translate(-175 -378)"><path d="M211 392.001 211 386.501 204 380 204 403 209 407.501 222.501 407.501 237.001 407.501 242.001 403 242.001 380 235.001 386.501 235.001 392.001 230.001 392.001 230.001 386.501 223 380 216 386.501 216 392.001 211 392.001Z" fill="#FFFFFF"/><path d="M239 447.5 237 411.5 209 411.5 207 447.5 202 452.5 202 470.5 244 470.5 244 452.5ZM227 430.5 219 430.5 219 423.5C219 421.291 220.791 419.5 223 419.5 225.209 419.5 227 421.291 227 423.5Z" fill="#FFFFFF"/></g></svg>