<svg width="96" height="96" xmlns="http://www.w3.org/2000/svg" xmlns:xlink="http://www.w3.org/1999/xlink" xml:space="preserve" overflow="hidden"><g transform="translate(-136 -134)"><path d="M160.4 174 160.4 160 173.6 160 180.5 174 180.5 174 160.5 174 160.4 174 160.4 174ZM214.4 174 202.5 174 202.5 165C202.5 163.9 203.4 163 204.5 163L204.5 159C201.2 159 198.5 161.7 198.5 165L198.5 174 187.2 174C187.1 173.8 187 173.6 186.9 173.3L179 157.3C178 155.2 175.9 153.9 173.6 154L160.5 154C157.2 154 154.5 156.7 154.5 160L154.5 174 152.4 175.3C151.8 175.7 151.5 176.3 151.5 177L151.5 180C151.5 180.3 151.6 180.6 151.7 180.9 150.1 181.9 148.6 183 147.2 184.4 146.8 184.8 146.5 185.4 146.5 186 146.5 186.6 146.8 187.2 147.2 187.6 148 188.2 149.1 188.2 149.9 187.4 154.7 182.6 159.6 182 160.9 182L162.4 182C171.1 182 178.1 188.4 178.4 197L178.4 198.9C178.4 199.9 179.1 200.8 180.1 201 180.7 201.1 181.3 200.9 181.7 200.5 182.1 200.1 182.4 199.6 182.4 199L182.4 197 200 197C201.7 191.6 206.7 188 212.4 188 213.6 188 214.7 188.2 215.9 188.5 216.5 188.7 217.2 188.5 217.7 188.1 218.2 187.7 218.5 187.1 218.5 186.5L218.5 178C218.5 176.9 218.1 175.9 217.3 175.2 216.5 174.4 215.5 174 214.4 174Z" fill="#FFFFFF"/><path d="M162.4 204.5C158.5 204.5 155.4 201.4 155.4 197.5 155.4 193.6 158.5 190.5 162.4 190.5 166.3 190.5 169.4 193.6 169.4 197.5 169.4 201.4 166.3 204.5 162.4 204.5L162.4 204.5ZM162.4 185.5C156 185.5 150.7 190.5 150.4 196.9L150.4 197C150.4 197.2 150.4 197.3 150.4 197.5 150.4 204.1 155.8 209.5 162.4 209.5 169 209.5 174.4 204.1 174.4 197.5 174.4 197.3 174.4 197.2 174.4 197 174.2 190.6 168.9 185.5 162.4 185.5Z" fill="#FFFFFF"/><path d="M212.4 206C209.6 206 207.4 203.8 207.4 201 207.4 198.2 209.6 196 212.4 196 215.2 196 217.4 198.2 217.4 201 217.4 203.8 215.2 206 212.4 206ZM218.4 194.3C215.2 191.5 210.5 191.2 207.1 193.7 203.7 196.2 202.5 200.8 204.2 204.6 205.9 208.5 210.2 210.6 214.3 209.7 218.5 208.8 221.4 205.1 221.4 200.9 221.4 198.4 220.4 196 218.4 194.3L218.4 194.3Z" fill="#FFFFFF"/></g></svg>