<svg width="96" height="96" xmlns="http://www.w3.org/2000/svg" xmlns:xlink="http://www.w3.org/1999/xlink" xml:space="preserve" overflow="hidden"><g transform="translate(-329 -168)"><path d="M401 202.8 401 186 393 186 393 195.2 377 180 377 180 335 220 339.5 223.8 377 188.2 377 188.2 414.5 223.8 419 220Z" fill="#FFFFFF"/><path d="M347 222.3 347 252 371 252 371 227 383 227 383 252 407 252 407 222.3 377 193.8 347 222.3ZM365 239 353 239 353 227 365 227 365 239ZM389 227 401 227 401 239 389 239 389 227Z" fill="#FFFFFF"/></g></svg>