<svg width="96" height="96" xmlns="http://www.w3.org/2000/svg" xmlns:xlink="http://www.w3.org/1999/xlink" xml:space="preserve" overflow="hidden"><g transform="translate(-167 -165)"><path d="M244.94 239.61 244.94 231.61 256.69 232.61 248.85 220.55 253.65 221.84 248 213.22 251.49 213.66 243.19 201.59 238.93 207.81 230.45 194.81 235.87 195.49 223 176.48 210.13 195.48 215.55 194.8 206.74 208.32 214.19 206.32 202 225.26 220 221.87 220 234.18C214.08 234.31 208.56 235.6 204.25 238.36 208.25 240.44 212.48 244.01 216.34 250L259 250C255.78 245.91 250.77 242.33 244.94 239.61ZM238.68 208.17 235.76 212.44 231.76 206.29ZM235.46 223.74 229.69 232.61 241 231.61 241 238C235.86 236.057 230.475 234.836 225 234.37L225 221.87Z" fill="#FFFFFF"/><path d="M199.19 239.46 199 239.46 199 236 204 237 200.34 230.26 203 231 199.85 226.21 201.79 226.45 197 220 192.6 226.43 194.53 226.19 192.83 228.78 189.08 222.78 193.2 223.89 188.33 216.48 191.33 216.85 184.21 206.46 177.09 216.83 180.09 216.46 175.22 223.87 179.34 222.76 172.6 233.14 182 232 182 242C177.834 243.903 174.094 246.623 171 250L212.72 250C208.19 243.65 203.29 240.73 199.19 239.46ZM185 240.83 185 232 192.85 232.9 191 237 196 236 196 239.21C192.267 239.107 188.545 239.655 185 240.83Z" fill="#FFFFFF"/></g></svg>